<?xml version="1.0" encoding="utf-8"?>
<!-- Generator: Adobe Illustrator 19.2.0, SVG Export Plug-In . SVG Version: 6.00 Build 0)  -->
<svg version="1.1" id="Ebene_1" xmlns="http://www.w3.org/2000/svg" xmlns:xlink="http://www.w3.org/1999/xlink" x="0px" y="0px"
	 viewBox="0 0 171.5 171.5" enable-background="new 0 0 171.5 171.5" xml:space="preserve">
<circle fill="#EC8B25" cx="85.7" cy="85.7" r="85.7"/>
<g>
	<g>
		<g>
			<path fill="#FFFFFF" d="M115.4,74.8L100.8,75c-3.8,0.1-7-3-7.1-6.8l-0.4-15.9c-0.1-3.8-3.3-6.9-7.1-6.9H45
				c-3.8,0-6.9,3.1-6.9,6.9v85c0,3.8,3.1,6.9,6.9,6.9h70.3c3.8,0,6.9-3.1,6.9-6.9V81.6C122.3,77.8,119.2,74.7,115.4,74.8z
				 M109.1,119v2.7h-6.9H58.3h-6.9V119v-2.7h6.9h43.9h6.9V119z M109.1,105.9v2.7h-6.9H58.3h-6.9v-2.7v-2.7h6.9h43.9h6.9V105.9z
				 M109.1,92.8v2.7h-6.9H58.3h-6.9v-2.7v-2.7h6.9h43.9h6.9V92.8z"/>
		</g>
		<path fill="#FFFFFF" d="M103.8,51.3c-2.6-2.8-9.2-6.4-9.2-5.3c0,1.1,4.7,4.2,4.6,11.1v5.7c0,3.8,3.1,6.9,6.9,6.8l4.2-0.1
			c7.5-0.3,11.5,4.1,12.4,4.1c0.9,0-4.4-6.6-7-9.4L103.8,51.3z"/>
	</g>
	<g>
		<path fill="#FFFFFF" d="M102.9,35.3l-41.4-0.1v3.2h40.7c8,2.7,27.9,23.9,27.9,29.9v67.1h3.2V68.3
			C133.2,60.4,111.5,37.9,102.9,35.3z"/>
		<path fill="#FFFFFF" d="M112.3,25.7l-41.4-0.1v3.2h40.7c8,2.7,27.9,23.9,27.9,29.8v67.1h3.2V58.7
			C142.6,50.8,120.9,28.3,112.3,25.7z"/>
	</g>
</g>
</svg>
