<?xml version="1.0" encoding="utf-8"?>
<!-- Generator: Adobe Illustrator 19.2.0, SVG Export Plug-In . SVG Version: 6.00 Build 0)  -->
<svg version="1.1" id="Ebene_1" xmlns="http://www.w3.org/2000/svg" xmlns:xlink="http://www.w3.org/1999/xlink" x="0px" y="0px"
	 viewBox="0 0 171.5 171.5" enable-background="new 0 0 171.5 171.5" xml:space="preserve">
<circle fill="#EC8B25" cx="85.7" cy="85.7" r="85.7"/>
<g>
	<g>
		<path fill="#FFFFFF" d="M70.5,101l7.3-20.6c-7.7-6.1-12.1-14.3-12.1-22.9c0-18.1,19.3-32.9,43.1-32.9c23.7,0,43.1,14.8,43.1,32.9
			s-19.3,32.9-43.1,32.9c-5.2,0-10.2-0.7-15-2c-2.3,0.8-9.2,4.5-14.7,7.7L70.5,101L70.5,101z M108.8,31.9C89.1,31.9,73,43.4,73,57.5
			c0,7,4,13.6,11.2,18.5l2.3,1.6l-2.6,7.4c7.7-4.1,9.2-4.1,9.9-4.1h0.5l0.7,0.2c4.3,1.3,9,2,13.7,2c19.7,0,35.8-11.5,35.8-25.6
			S128.5,31.9,108.8,31.9L108.8,31.9z"/>
	</g>
	<g>
		<g>
			<polygon fill="#FFFFFF" points="130,50.7 89.3,50.7 89.3,46.9 130,46.9 130,50.7 			"/>
		</g>
		<g>
			<polygon fill="#FFFFFF" points="130,58.3 89.3,58.3 89.3,54.5 130,54.5 130,58.3 			"/>
		</g>
		<g>
			<polygon fill="#FFFFFF" points="130,66 89.3,66 89.3,62.1 130,62.1 130,66 			"/>
		</g>
	</g>
	<path fill="#FFFFFF" d="M80.1,115.2c-6.2-3-12.8-4.8-19.6-5.6c0.2-1.6,0.5-3.2,0.7-4.8c1.5-1,2.6-2.4,2.7-3.6
		c0.2-1.5,0.3-3,0.5-4.5c0.2,0.2,0.5,0.4,0.8,0.4c0.7,0.1,1.4-0.4,1.4-1.2l0.7-6.9c0.1-0.7-0.4-1.4-1.2-1.4c-0.3,0-0.5,0-0.8,0.2
		c0.2-1.3,0.3-2.6,0.5-3.9c0.1-1.8,1-6.6-2.4-9.6c-5-4.9-16-4.9-21,0c-3.4,3.1-2.6,7.9-2.4,9.6c0.2,1.3,0.3,2.6,0.5,3.9
		c-0.2-0.1-0.5-0.2-0.7-0.2c-0.7,0.1-1.2,0.7-1.2,1.4l0.7,6.9c0.1,0.7,0.7,1.2,1.4,1.2c0.3,0,0.6-0.2,0.8-0.4c0.2,1.5,0.3,3,0.5,4.5
		c0.1,1.2,1.2,2.6,2.7,3.6c0.2,1.6,0.5,3.2,0.7,4.8c-6.7,0.8-13.4,2.7-19.6,5.6c-2,1.1-3.4,3.8-3.2,5.9c0.2,2.4,0.5,4.8,0.7,7.2
		c0.2,2.1,2,4.2,4,4.6c17,2.7,34.2,2.7,51.1,0c2-0.4,3.8-2.5,4-4.6c0.2-2.4,0.5-4.8,0.7-7.2C83.5,118.9,82.1,116.2,80.1,115.2z"/>
</g>
</svg>
