<?xml version="1.0" encoding="utf-8"?>
<!-- Generator: Adobe Illustrator 19.2.0, SVG Export Plug-In . SVG Version: 6.00 Build 0)  -->
<svg version="1.1" id="Ebene_1" xmlns="http://www.w3.org/2000/svg" xmlns:xlink="http://www.w3.org/1999/xlink" x="0px" y="0px"
	 viewBox="0 0 171.5 171.5" enable-background="new 0 0 171.5 171.5" xml:space="preserve">
<circle fill="#EC8B25" cx="85.7" cy="85.7" r="85.7"/>
<g>
	<g>
		<path fill="#FFFFFF" d="M129,63.3l-16.4,0.2c-4.3,0.1-7.8-3.4-7.9-7.6l-0.5-17.7c-0.1-4.3-3.7-7.7-7.9-7.7H50.4
			c-4.3,0-7.7,3.5-7.7,7.7v95c0,4.3,3.5,7.7,7.7,7.7H129c4.3,0,7.7-3.5,7.7-7.7V71C136.8,66.7,133.3,63.3,129,63.3z M122,112.8v3
			h-7.7H65.1h-7.7v-3v-3h7.7h49.1h7.7V112.8z M122,98.2v3h-7.7H65.1h-7.7v-3v-3h7.7h49.1h7.7V98.2z M122,83.5v3h-7.7H65.1h-7.7v-3
			v-3h7.7h49.1h7.7V83.5z"/>
	</g>
	<path fill="#FFFFFF" d="M116,37.1c-2.9-3.2-10.3-7.1-10.3-5.9c0,1.3,5.2,4.7,5.1,12.5V50c0,4.3,3.5,7.7,7.7,7.6l4.7-0.1
		c8.4-0.3,12.8,4.6,13.8,4.6c1,0-4.9-7.4-7.8-10.5L116,37.1z"/>
</g>
</svg>
