<?xml version="1.0" encoding="iso-8859-1"?>
<!-- Generator: Adobe Illustrator 16.0.0, SVG Export Plug-In . SVG Version: 6.00 Build 0)  -->
<!DOCTYPE svg PUBLIC "-//W3C//DTD SVG 1.1//EN" "http://www.w3.org/Graphics/SVG/1.1/DTD/svg11.dtd">
<svg version="1.1" id="Capa_1" xmlns="http://www.w3.org/2000/svg" xmlns:xlink="http://www.w3.org/1999/xlink" x="0px" y="0px"
	 width="371.843px" height="371.843px" viewBox="0 0 371.843 371.843" style="enable-background:new 0 0 371.843 371.843;"
	 xml:space="preserve">
<g>
	<path d="M223.063,184.94c0-1.836-1.224-3.061-2.447-3.672c1.224-3.673,0.611-7.956-4.284-8.568
		c-37.944-5.508-80.172-11.016-119.34-10.404c1.224-9.18,3.672-17.748,8.568-24.479c1.836-3.061,0.612-6.732-1.836-9.181
		c-1.836-3.672-6.12-6.731-11.016-3.672c-22.032,12.24-43.452,26.316-63.648,41.616c-10.404,7.956-31.824,23.868-28.764,40.393
		c4.896,29.376,52.02,64.26,81.396,75.888c0,1.836,0.612,4.284,1.836,6.12c1.836,3.06,4.896,3.06,7.344,1.836
		c9.18-3.672,10.404-18.972,9.792-33.048c12.852,1.836,29.376,0,40.392,0.611c25.704,1.225,50.795,1.837,76.5,1.225
		c4.284,0,7.956-3.672,7.956-7.956C224.288,228.392,226.735,205.748,223.063,184.94z"/>
	<path d="M173.492,288.368c0-3.06-1.836-6.731-5.508-7.344s-7.344-0.612-11.016-0.612c-1.224-1.836-3.672-3.672-6.12-3.06
		c-12.24,0-26.316,1.836-34.272,11.628c-8.568,10.404-6.732,25.704-1.836,37.944c-0.612,11.016,1.836,22.031,9.18,27.539
		c1.224,0.612,2.448,1.225,3.672,1.225c0.612,1.224,1.836,1.836,2.448,1.836c10.404,1.224,20.196,0,30.6,0.612
		c3.06,0,6.12-2.448,6.732-4.896C173.492,333.043,175.328,309.176,173.492,288.368z"/>
	<path d="M371.168,264.5c0.611-33.048,0-66.708-3.672-99.756c-4.284-42.84-14.688-97.308,3.06-138.312
		c1.224-3.061,0.612-6.12-1.224-8.568c0.611-4.284-1.836-8.568-7.956-9.18c-78.336-1.225-156.672,6.731-235.008,0
		c-4.284-0.612-7.956,4.283-7.956,7.956c-0.612,39.779-6.732,80.783,2.448,119.951c0.612,2.448,1.836,3.061,3.672,3.672
		c0.612,1.225,1.836,2.448,3.672,3.061c5.508,1.224,12.24,0,17.748-0.612c6.12-0.611,14.688,0,19.584-3.06
		c2.448-1.225,3.672-3.672,3.672-6.12c0-0.612,0-1.224,0-1.836s-0.612-1.836-1.224-2.448c1.224-9.792,1.836-19.584,3.06-29.376
		c1.224-8.568,3.672-17.136,3.672-25.704c18.36,3.061,38.555,1.836,57.528,1.836c25.092,0,51.407,4.896,77.111,3.672
		c-7.344,91.188,2.448,184.213,4.284,275.4c0,4.284,3.672,7.956,7.956,7.956c12.24,0,25.704,1.836,36.72-4.284
		c0,0.612,0,0.612,0,1.225l0,0c1.225,3.06,5.509,4.284,6.732,0C374.84,329.984,371.168,295.1,371.168,264.5z"/>
</g>
<g>
</g>
<g>
</g>
<g>
</g>
<g>
</g>
<g>
</g>
<g>
</g>
<g>
</g>
<g>
</g>
<g>
</g>
<g>
</g>
<g>
</g>
<g>
</g>
<g>
</g>
<g>
</g>
<g>
</g>
</svg>
