<?xml version="1.0" encoding="utf-8"?>
<!-- Generator: Adobe Illustrator 19.2.0, SVG Export Plug-In . SVG Version: 6.00 Build 0)  -->
<svg version="1.1" id="Ebene_1" xmlns="http://www.w3.org/2000/svg" xmlns:xlink="http://www.w3.org/1999/xlink" x="0px" y="0px"
	 viewBox="22 431.2 570 94.7" enable-background="new 22 431.2 570 94.7" xml:space="preserve">
<g>
	<path fill="#E27D26" d="M49.9,459.2c5.9,0,10.5,0.8,13.8,1.7v-22.2c0-2.5,0.8-3.4,3.4-3.4h6.3c2.5,0,3.4,0.8,3.4,3.4v74.2
		c0,3.8-0.8,5-4.6,6.3c-4.6,2.1-10.9,3.8-21.8,3.8c-17.2,0-25.2-8.8-25.2-23.5v-15.9C25.1,468,33.5,459.2,49.9,459.2z M52.4,471.7
		c-9.2,0-13.4,4.2-13.4,12.2V499c0,7.5,4.6,11.3,13,11.3c4.2,0,7.5-0.4,10.5-1.3c0.8-0.4,0.8-0.8,0.8-1.3v-35.2
		C60.8,472.6,57,471.7,52.4,471.7z"/>
	<path fill="#E27D26" d="M114.9,459.2c18.5,0,26.8,10.5,26.8,23.9v7.1c0,2.9-1.3,5-5.5,5H101v4.2c0,7.5,4.6,11.3,13.4,11.3
		c6.7,0,11.3-2.1,13.8-6.3c2.1-2.5,2.9-2.9,6.3-1.7l4.2,2.1c2.5,1.3,2.9,3.4,1.7,5.9c-4.2,6.7-11.7,10.9-25.2,10.9
		c-19.3,0-26.8-10.5-26.8-24.7v-13.8C88.4,468,97.3,459.2,114.9,459.2z M114.9,470.9c-8.8,0-13.4,4.2-13.4,11.7v2.5h26.8v-2.5
		C128.3,475.1,124.1,470.9,114.9,470.9z"/>
	<path fill="#E27D26" d="M179.9,459.2c16.4,0,23.9,8.8,23.9,23.5v35.2c0,2.5-0.8,3.4-3.4,3.4h-6.3c-2.5,0-3.4-0.8-3.4-3.4v-34.8
		c0-7.5-4.2-11.3-12.6-11.3c-4.6,0-8,0.8-10.9,1.7c-0.8,0.4-0.8,0.8-0.8,1.3v43.6c0,2.5-0.8,3.4-3.4,3.4h-6.3
		c-2.5,0-3.4-0.8-3.4-3.4v-48.2c0-3.8,0.8-5,4.6-6.3C161.4,461.3,169,459.2,179.9,459.2z"/>
	<path fill="#E27D26" d="M266.3,521.2H260c-4.2,0-5-0.4-6.3-3.4l-7.1-15.5c-2.1-3.4-4.2-5.5-9.2-5.5h-6.7v20.6
		c0,2.5-0.8,3.8-3.8,3.8h-6.3c-2.9,0-3.8-0.8-3.8-3.8V439c0-2.5,0.8-3.8,3.8-3.8h6.3c2.9,0,3.8,0.8,3.8,3.8v45.7h5.5h0.8l15.5-20.6
		c2.1-2.5,2.9-2.5,6.7-2.5h5.9c3.4,0,4.6,1.7,2.1,4.2l-17.6,21.8c3.4,2.1,6.3,5,8.4,9.6l10.5,20.1C270,520,269.6,521.2,266.3,521.2z
		"/>
</g>
<g>
	<path fill="#52524F" d="M317.9,439v5c0,2.5-0.8,3.8-3.8,3.8c-10.1,0-13,3.4-13,12.2v1.3h13.4c2.5,0,3.4,0.8,3.4,3.4v5.5
		c0,2.5-0.8,3.4-3.4,3.4h-13.4v44.5c0,2.5-0.8,3.4-3.4,3.4h-6.3c-2.5,0-3.8-0.8-3.8-3.4v-44.5h-6.7c-2.5,0-3.4-0.8-3.4-3.4v-5.5
		c0-2.5,0.8-3.4,3.4-3.4h6.7V460c0-15.9,8-24.3,25.6-24.7h1.3C316.6,435.3,317.9,436.1,317.9,439z"/>
	<path fill="#52524F" d="M348.1,459.2c19.3,0,24.7,10.5,24.7,23.9v30.2c0,4.2-0.8,5.5-4.2,6.3c-4.2,2.1-11.3,2.9-21,2.9
		c-20.6,0-26-6.7-26-18.9c0-14.3,7.5-18.9,26.4-18.9c4.6,0,9.2,0.4,10.9,0.8v-3.4c0-7.1-2.9-11.3-11.3-11.3
		c-5.9,0-10.1,2.1-12.2,5.9c-1.7,2.1-2.1,2.5-5,2.1l-4.6-2.1c-2.5-1.3-3.4-2.5-2.1-5.5C327.9,463.8,335.9,459.2,348.1,459.2z
		 M346.8,496.5c-8.8,0-10.9,2.5-10.9,7.5c0,5,2.1,7.5,10.9,7.5c6.3,0,9.6-0.4,11.3-0.8c0.8-0.4,1.3-0.8,1.3-1.7v-11.7
		C356.9,497.3,351.4,496.5,346.8,496.5z"/>
	<path fill="#52524F" d="M398.8,438.6v22.6c3.4-0.8,8.4-2.1,14.3-2.1c16.8,0,23.9,8.8,23.9,23.5v15.5c0,15.9-8.4,24.7-26.4,24.7
		c-9.6,0-16.8-2.1-21-3.8c-3.8-2.1-4.2-2.5-4.2-6.3v-74.2c0-2.5,0.8-3.4,3.4-3.4h6.3C398,435.3,398.8,436.1,398.8,438.6z M411,471.7
		c-5,0-9.2,1.3-11.7,2.1v34.4c0,0.8,0,0.8,0.8,1.3c2.5,0.8,6.3,1.7,10.1,1.7c9.2,0,13.8-4.2,13.8-12.6v-15.1
		C423.5,475.9,418.9,471.7,411,471.7z"/>
	<path fill="#52524F" d="M478.1,459.2c2.5,0,3.4,0.8,3.4,3.4v5.5c0,2.5-0.8,3.4-3.4,3.4h-4.2c-4.6,0-8,0.4-10.9,1.7
		c-1.3,0.4-1.3,0.8-1.3,1.7v43.2c0,2.5-0.8,3.4-3.4,3.4h-6.3c-2.5,0-3.4-0.8-3.4-3.4v-48.7c0-3.8,0.8-5,4.6-6.3
		c4.2-1.7,11.3-3.4,21.8-3.4C474.7,459.2,478.1,459.2,478.1,459.2z"/>
	<path fill="#52524F" d="M503.7,445.7v1.3c0,5.5-2.1,7.1-7.1,7.1h-0.8c-5.5,0-7.1-2.1-7.1-7.1v-1.3c0-5.5,2.1-6.7,7.1-6.7h0.8
		C502,438.2,503.7,440.3,503.7,445.7z M502.8,464.6v53.3c0,2.5-0.8,3.4-3.4,3.4h-6.3c-2.5,0-3.4-0.8-3.4-3.4v-53.3
		c0-2.5,0.8-3.4,3.4-3.4h6.3C502,461.3,502.8,462.1,502.8,464.6z"/>
	<path fill="#52524F" d="M565.3,521.2h-5.9c-4.2,0-5-0.4-6.3-3.4l-7.1-15.5c-2.1-4.2-4.6-5.9-9.2-5.9h-6.7V517
		c0,2.5-0.8,3.8-3.8,3.8H520c-2.9,0-3.8-0.8-3.8-3.8v-78c0-2.5,0.8-3.8,3.8-3.8h6.3c2.9,0,3.8,0.8,3.8,3.8v45.7h5.5h0.8l15.5-20.6
		c2.1-2.5,2.9-2.5,6.7-2.5h5.9c3.4,0,4.6,1.7,2.1,4.2l-17.6,21.8c3.4,2.1,6.3,5,8.4,9.6l10.5,20.1
		C569.5,520,569.1,521.2,565.3,521.2z"/>
</g>
<g>
	<path fill="#52524F" d="M589.2,514.9v0.8c0,4.6-1.3,5.9-5.9,5.9h-0.8c-4.6,0-5.9-1.3-5.9-5.9v-0.8c0-4.6,1.7-5.9,5.9-5.9h0.8
		C587.5,508.7,589.2,509.9,589.2,514.9z"/>
</g>
</svg>
