<?xml version="1.0" encoding="utf-8"?>
<!-- Generator: Adobe Illustrator 19.1.0, SVG Export Plug-In . SVG Version: 6.00 Build 0)  -->
<!DOCTYPE svg PUBLIC "-//W3C//DTD SVG 1.1//EN" "http://www.w3.org/Graphics/SVG/1.1/DTD/svg11.dtd">
<svg version="1.1" id="Ebene_1" xmlns="http://www.w3.org/2000/svg" xmlns:xlink="http://www.w3.org/1999/xlink" x="0px" y="0px"
	 viewBox="0 0 182.667 44.333" enable-background="new 0 0 182.667 44.333" xml:space="preserve">
<g>
	<defs>
		<rect id="SVGID_1_" x="-4.583" y="-4.818" width="187.424" height="50.771"/>
	</defs>
	<clipPath id="SVGID_2_">
		<use xlink:href="#SVGID_1_"  overflow="visible"/>
	</clipPath>
	<path clip-path="url(#SVGID_2_)" fill="#717070" d="M67.949,28.903c-3.609,0-6.393-0.891-8.353-2.671
		c-1.959-1.781-2.938-4.332-2.938-7.653c0-2.627,0.433-5.007,1.299-7.142c0.866-2.135,2.059-3.981,3.578-5.54
		c1.483-1.512,3.262-2.693,5.335-3.544c2.074-0.851,4.253-1.278,6.537-1.278c1.841,0,3.551,0.189,5.129,0.565
		c1.577,0.377,3,0.929,4.268,1.659L81.226,9.77h-0.79c-1.135-1.221-2.267-2.119-3.39-2.693c-1.124-0.575-2.446-0.863-3.965-0.863
		c-2.666,0-4.864,1.076-6.592,3.229c-1.729,2.152-2.592,4.894-2.592,8.225c0,2.141,0.478,3.691,1.434,4.654
		c0.955,0.962,2.355,1.442,4.195,1.442c1.648,0,3.196-0.333,4.642-1.002c1.446-0.667,2.814-1.518,4.105-2.553h0.717l-1.559,6.394
		c-0.538,0.216-1.165,0.477-1.882,0.782c-0.717,0.305-1.404,0.554-2.06,0.745c-0.861,0.252-1.666,0.444-2.412,0.576
		C70.33,28.837,69.287,28.903,67.949,28.903"/>
	<polygon clip-path="url(#SVGID_2_)" fill="#717070" points="108.12,6.796 99.79,6.796 94.802,28.353 87.877,28.353 92.865,6.796 
		84.516,6.796 85.702,1.625 109.305,1.625 	"/>
	<path clip-path="url(#SVGID_2_)" fill="#717070" d="M133.333,8.359c0,2.143-0.652,3.946-1.955,5.406
		c-1.303,1.461-3.072,2.562-5.308,3.304l6.165,11.283h-7.698l-5.023-9.792h-3.861l-2.259,9.792h-6.886l6.166-26.727h10.418
		c3.264,0,5.788,0.553,7.569,1.662C132.442,4.393,133.333,6.085,133.333,8.359 M125.899,9.522c0-1.074-0.344-1.834-1.032-2.281
		c-0.687-0.448-1.7-0.672-3.04-0.672h-3.406l-1.655,7.176h3.384c1.827,0,3.242-0.373,4.245-1.119
		C125.398,11.88,125.899,10.845,125.899,9.522"/>
	<path clip-path="url(#SVGID_2_)" fill="#717070" d="M162.625,11.571c0,2.19-0.37,4.343-1.112,6.459
		c-0.741,2.117-1.818,3.965-3.228,5.544c-1.543,1.723-3.343,3.041-5.4,3.956c-2.058,0.915-4.426,1.373-7.104,1.373
		c-3.648,0-6.504-0.943-8.567-2.826c-2.063-1.884-3.094-4.475-3.094-7.778c0-2.321,0.394-4.526,1.184-6.62
		c0.788-2.093,1.919-3.935,3.391-5.526c1.435-1.543,3.211-2.774,5.327-3.695c2.117-0.921,4.425-1.383,6.925-1.383
		c3.66,0,6.52,0.946,8.585,2.836C161.594,5.8,162.625,8.354,162.625,11.571 M152.781,20.679c0.815-1.063,1.452-2.297,1.913-3.7
		c0.461-1.404,0.692-3.02,0.692-4.848c0-1.911-0.458-3.408-1.375-4.489c-0.915-1.08-2.223-1.622-3.924-1.622
		c-1.114,0-2.175,0.254-3.188,0.762c-1.011,0.507-1.942,1.281-2.792,2.32c-0.827,0.993-1.491,2.226-1.994,3.701
		c-0.503,1.475-0.755,3.133-0.755,4.972c0,2.045,0.47,3.585,1.411,4.624c0.94,1.039,2.242,1.559,3.906,1.559
		c1.15,0,2.257-0.283,3.323-0.851C151.064,22.539,151.992,21.73,152.781,20.679"/>
	<polygon clip-path="url(#SVGID_2_)" fill="#045764" points="20.66,1.625 1.869,1.626 0.156,9.399 8.336,9.399 4.29,28.352 
		14.402,28.352 	"/>
	<polygon clip-path="url(#SVGID_2_)" fill="#717070" points="22.569,1.625 16.261,28.352 21.718,28.352 26.707,6.796 35.037,6.796 
		36.221,1.625 	"/>
	<polygon clip-path="url(#SVGID_2_)" fill="#045764" points="18.504,36.518 15.002,42.403 13.305,42.403 12.517,36.518 
		14.066,36.518 14.536,40.713 16.871,36.518 	"/>
	<path clip-path="url(#SVGID_2_)" fill="#045764" d="M20.588,37.968l-1.028,4.436h-1.433l1.029-4.436H20.588z M21.027,36.26
		l-0.25,1.076h-1.512l0.25-1.076H21.027z"/>
	<path clip-path="url(#SVGID_2_)" fill="#045764" d="M23.603,42.527c-0.756,0-1.34-0.167-1.751-0.501
		c-0.411-0.336-0.617-0.799-0.617-1.39c0-0.403,0.067-0.774,0.202-1.112c0.134-0.338,0.328-0.634,0.58-0.89
		c0.243-0.248,0.546-0.445,0.909-0.589c0.364-0.146,0.763-0.218,1.198-0.218c0.66,0,1.159,0.134,1.495,0.403
		c0.335,0.267,0.504,0.663,0.504,1.185c0,0.181-0.018,0.356-0.054,0.528c-0.036,0.172-0.082,0.342-0.14,0.511H22.63V40.5v0.045
		c0,0.309,0.109,0.549,0.325,0.724c0.217,0.174,0.548,0.26,0.994,0.26c0.311,0,0.606-0.052,0.884-0.159
		c0.279-0.106,0.52-0.224,0.726-0.355h0.159l-0.265,1.144c-0.277,0.122-0.568,0.213-0.874,0.276
		C24.273,42.496,23.948,42.527,23.603,42.527 M24.688,39.62c0.008-0.048,0.014-0.092,0.018-0.132
		c0.004-0.039,0.006-0.081,0.006-0.123c0-0.21-0.065-0.371-0.194-0.481c-0.129-0.112-0.315-0.169-0.558-0.169
		c-0.293,0-0.539,0.08-0.738,0.24c-0.199,0.159-0.35,0.381-0.453,0.665H24.688z"/>
	<polygon clip-path="url(#SVGID_2_)" fill="#045764" points="29.611,36.253 28.185,42.403 26.753,42.403 28.179,36.253 	"/>
	<path clip-path="url(#SVGID_2_)" fill="#045764" d="M31.512,42.528c-0.379,0-0.747-0.036-1.102-0.107
		c-0.355-0.071-0.628-0.154-0.817-0.249L29.866,41h0.13c0.058,0.051,0.131,0.106,0.22,0.166c0.087,0.061,0.213,0.125,0.377,0.19
		c0.139,0.06,0.301,0.113,0.486,0.156c0.184,0.044,0.383,0.066,0.597,0.066c0.319,0,0.558-0.037,0.717-0.111
		c0.16-0.073,0.24-0.178,0.24-0.314c0-0.105-0.058-0.186-0.171-0.241c-0.113-0.056-0.347-0.124-0.704-0.207
		c-0.603-0.139-1.016-0.308-1.239-0.505c-0.222-0.198-0.334-0.444-0.334-0.74c0-0.5,0.224-0.895,0.672-1.184
		c0.448-0.288,1.053-0.433,1.818-0.433c0.332,0,0.663,0.034,0.996,0.101c0.332,0.067,0.576,0.139,0.731,0.215l-0.261,1.119h-0.123
		c-0.187-0.143-0.414-0.259-0.679-0.349c-0.265-0.089-0.537-0.135-0.817-0.135c-0.303,0-0.536,0.037-0.698,0.109
		c-0.162,0.072-0.244,0.183-0.244,0.332c0,0.116,0.07,0.205,0.21,0.267c0.139,0.062,0.36,0.126,0.66,0.192
		c0.559,0.121,0.962,0.274,1.208,0.459c0.246,0.184,0.37,0.442,0.37,0.775c0,0.495-0.227,0.885-0.68,1.171
		C32.896,42.385,32.283,42.528,31.512,42.528"/>
	<path clip-path="url(#SVGID_2_)" fill="#045764" d="M37.406,42.527c-0.756,0-1.34-0.167-1.751-0.501
		c-0.411-0.336-0.616-0.799-0.616-1.39c0-0.403,0.067-0.774,0.201-1.112c0.134-0.338,0.328-0.634,0.581-0.89
		c0.242-0.248,0.545-0.445,0.909-0.589c0.363-0.146,0.762-0.218,1.196-0.218c0.662,0,1.161,0.134,1.496,0.403
		c0.336,0.267,0.504,0.663,0.504,1.185c0,0.181-0.018,0.356-0.054,0.528c-0.035,0.172-0.082,0.342-0.14,0.511h-3.298V40.5v0.045
		c0,0.309,0.108,0.549,0.324,0.724c0.217,0.174,0.548,0.26,0.994,0.26c0.311,0,0.606-0.052,0.884-0.159
		c0.279-0.106,0.52-0.224,0.726-0.355h0.159l-0.265,1.144c-0.277,0.122-0.568,0.213-0.874,0.276
		C38.077,42.496,37.751,42.527,37.406,42.527 M38.491,39.62c0.008-0.048,0.014-0.092,0.018-0.132
		c0.004-0.039,0.006-0.081,0.006-0.123c0-0.21-0.065-0.371-0.194-0.481c-0.129-0.112-0.315-0.169-0.558-0.169
		c-0.292,0-0.538,0.08-0.737,0.24c-0.2,0.159-0.351,0.381-0.454,0.665H38.491z"/>
	<path clip-path="url(#SVGID_2_)" fill="#045764" d="M43.016,37.968l-1.028,4.436h-1.433l1.03-4.436H43.016z M43.455,36.26
		l-0.25,1.076h-1.512l0.25-1.076H43.455z"/>
	<path clip-path="url(#SVGID_2_)" fill="#045764" d="M45.236,42.489c-0.492,0-0.844-0.081-1.054-0.242
		c-0.211-0.162-0.316-0.403-0.316-0.722c0-0.084,0.007-0.166,0.02-0.244c0.013-0.079,0.03-0.172,0.051-0.277l0.483-2.101h-0.586
		l0.217-0.935h0.584l0.292-1.27h1.432l-0.293,1.27h1.331l-0.216,0.935h-1.33l-0.372,1.605c-0.027,0.11-0.052,0.223-0.076,0.335
		c-0.025,0.112-0.037,0.207-0.037,0.286c0,0.159,0.044,0.27,0.133,0.331c0.088,0.062,0.224,0.094,0.408,0.094
		c0.074,0,0.171-0.015,0.291-0.041c0.119-0.027,0.214-0.058,0.285-0.092h0.119l-0.221,0.942c-0.161,0.041-0.33,0.07-0.507,0.093
		C45.696,42.477,45.483,42.489,45.236,42.489"/>
	<path clip-path="url(#SVGID_2_)" fill="#045764" d="M49.969,37.968l-1.028,4.436h-1.433l1.029-4.436H49.969z M50.408,36.26
		l-0.25,1.076h-1.512l0.25-1.076H50.408z"/>
	<path clip-path="url(#SVGID_2_)" fill="#045764" d="M55.848,37.968l-0.896,3.929c-0.098,0.422-0.236,0.772-0.415,1.052
		c-0.179,0.279-0.397,0.502-0.652,0.668c-0.265,0.171-0.55,0.291-0.859,0.359c-0.308,0.069-0.655,0.103-1.04,0.103
		c-0.319,0-0.625-0.018-0.917-0.056c-0.293-0.039-0.54-0.083-0.74-0.133l0.217-1.089h0.174c0.219,0.083,0.44,0.149,0.664,0.199
		c0.224,0.048,0.423,0.074,0.597,0.074c0.25,0,0.467-0.023,0.652-0.07c0.185-0.046,0.329-0.113,0.435-0.2
		c0.113-0.092,0.203-0.206,0.271-0.34c0.067-0.135,0.121-0.299,0.162-0.495l0.019-0.082c-0.205,0.139-0.409,0.25-0.612,0.332
		c-0.202,0.081-0.432,0.122-0.687,0.122c-0.498,0-0.887-0.125-1.167-0.376c-0.281-0.249-0.421-0.628-0.421-1.134
		c0-0.872,0.247-1.588,0.74-2.148c0.493-0.559,1.091-0.84,1.796-0.84c0.252,0,0.483,0.031,0.689,0.092
		c0.207,0.062,0.375,0.138,0.501,0.231l0.1-0.198H55.848z M54.177,38.999c-0.076-0.034-0.177-0.066-0.303-0.096
		c-0.125-0.031-0.235-0.046-0.33-0.046c-0.425,0-0.768,0.159-1.026,0.478c-0.259,0.318-0.388,0.727-0.388,1.227
		c0,0.227,0.055,0.403,0.166,0.53c0.11,0.126,0.31,0.189,0.597,0.189c0.141,0,0.282-0.027,0.426-0.081
		c0.144-0.054,0.279-0.118,0.406-0.191L54.177,38.999z"/>
	<polygon clip-path="url(#SVGID_2_)" fill="#045764" points="57.873,42.404 56.389,42.404 56.744,40.852 58.228,40.852 	"/>
	<polygon clip-path="url(#SVGID_2_)" fill="#045764" points="66.618,42.404 62.377,42.404 63.74,36.519 65.264,36.519 
		64.165,41.266 66.883,41.266 	"/>
	<path clip-path="url(#SVGID_2_)" fill="#045764" d="M70.151,42.527c-0.756,0-1.339-0.167-1.75-0.501
		c-0.412-0.336-0.617-0.799-0.617-1.39c0-0.403,0.068-0.774,0.201-1.112c0.135-0.338,0.329-0.634,0.582-0.89
		c0.242-0.248,0.545-0.445,0.908-0.589c0.364-0.146,0.763-0.218,1.197-0.218c0.661,0,1.16,0.134,1.496,0.403
		c0.335,0.267,0.504,0.663,0.504,1.185c0,0.181-0.019,0.356-0.054,0.528c-0.036,0.172-0.082,0.342-0.14,0.511h-3.299V40.5v0.045
		c0,0.309,0.109,0.549,0.325,0.724c0.216,0.174,0.548,0.26,0.993,0.26c0.311,0,0.607-0.052,0.885-0.159
		c0.278-0.106,0.52-0.224,0.726-0.355h0.158l-0.264,1.144c-0.277,0.122-0.568,0.213-0.875,0.276
		C70.822,42.496,70.497,42.527,70.151,42.527 M71.237,39.62c0.007-0.048,0.014-0.092,0.018-0.132
		c0.004-0.039,0.005-0.081,0.005-0.123c0-0.21-0.064-0.371-0.193-0.481c-0.129-0.112-0.315-0.169-0.558-0.169
		c-0.293,0-0.539,0.08-0.738,0.24c-0.199,0.159-0.35,0.381-0.453,0.665H71.237z"/>
	<path clip-path="url(#SVGID_2_)" fill="#045764" d="M75.763,37.968l-1.029,4.436h-1.432l1.029-4.436H75.763z M76.202,36.26
		l-0.25,1.076H74.44l0.25-1.076H76.202z"/>
	<path clip-path="url(#SVGID_2_)" fill="#045764" d="M78.048,42.528c-0.38,0-0.747-0.036-1.102-0.107
		c-0.355-0.071-0.628-0.154-0.818-0.249L76.401,41h0.131c0.058,0.051,0.131,0.106,0.219,0.166c0.088,0.061,0.214,0.125,0.377,0.19
		c0.14,0.06,0.302,0.113,0.487,0.156c0.184,0.044,0.383,0.066,0.597,0.066c0.319,0,0.558-0.037,0.717-0.111
		c0.16-0.073,0.239-0.178,0.239-0.314c0-0.105-0.057-0.186-0.17-0.241c-0.113-0.056-0.347-0.124-0.704-0.207
		c-0.603-0.139-1.016-0.308-1.239-0.505c-0.222-0.198-0.334-0.444-0.334-0.74c0-0.5,0.223-0.895,0.672-1.184
		c0.448-0.288,1.053-0.433,1.818-0.433c0.332,0,0.663,0.034,0.996,0.101c0.332,0.067,0.576,0.139,0.731,0.215l-0.262,1.119h-0.122
		c-0.188-0.143-0.413-0.259-0.679-0.349c-0.265-0.089-0.538-0.135-0.817-0.135c-0.303,0-0.536,0.037-0.699,0.109
		c-0.162,0.072-0.243,0.183-0.243,0.332c0,0.116,0.07,0.205,0.21,0.267c0.139,0.062,0.36,0.126,0.66,0.192
		c0.559,0.121,0.961,0.274,1.207,0.459c0.247,0.184,0.37,0.442,0.37,0.775c0,0.495-0.226,0.885-0.679,1.171
		C79.432,42.385,78.819,42.528,78.048,42.528"/>
	<path clip-path="url(#SVGID_2_)" fill="#045764" d="M83.148,42.489c-0.493,0-0.845-0.081-1.055-0.242
		c-0.21-0.162-0.316-0.403-0.316-0.722c0-0.084,0.007-0.166,0.021-0.244c0.013-0.079,0.03-0.172,0.051-0.277l0.483-2.101h-0.586
		l0.217-0.935h0.584l0.292-1.27h1.432l-0.293,1.27h1.331l-0.217,0.935h-1.329l-0.373,1.605c-0.026,0.11-0.052,0.223-0.076,0.335
		s-0.036,0.207-0.036,0.286c0,0.159,0.045,0.27,0.132,0.331c0.089,0.062,0.225,0.094,0.409,0.094c0.074,0,0.17-0.015,0.29-0.041
		c0.12-0.027,0.215-0.058,0.286-0.092h0.119l-0.221,0.942c-0.161,0.041-0.331,0.07-0.507,0.093
		C83.607,42.477,83.395,42.489,83.148,42.489"/>
	<path clip-path="url(#SVGID_2_)" fill="#045764" d="M90.833,37.968l-1.02,4.436h-1.431l0.113-0.491
		c-0.142,0.093-0.28,0.179-0.416,0.259c-0.136,0.081-0.263,0.144-0.384,0.192c-0.152,0.064-0.291,0.107-0.418,0.13
		c-0.125,0.023-0.251,0.034-0.373,0.034c-0.39,0-0.696-0.093-0.92-0.281c-0.226-0.187-0.337-0.463-0.337-0.829
		c0-0.1,0.005-0.193,0.015-0.279c0.01-0.085,0.028-0.179,0.052-0.283l0.663-2.888h1.436l-0.507,2.201
		c-0.038,0.169-0.068,0.314-0.087,0.434c-0.02,0.122-0.03,0.225-0.03,0.309c0,0.173,0.042,0.299,0.126,0.377
		c0.084,0.078,0.243,0.116,0.476,0.116c0.115,0,0.248-0.024,0.399-0.074c0.151-0.051,0.313-0.123,0.489-0.218l0.723-3.145H90.833z"
		/>
	<path clip-path="url(#SVGID_2_)" fill="#045764" d="M96.555,38.97c0,0.079-0.005,0.164-0.016,0.257
		c-0.01,0.091-0.027,0.188-0.05,0.288l-0.661,2.889h-1.439l0.502-2.202c0.037-0.162,0.066-0.302,0.086-0.418
		c0.022-0.116,0.032-0.224,0.032-0.323c0-0.173-0.043-0.297-0.13-0.376c-0.088-0.079-0.248-0.119-0.48-0.119
		c-0.114,0-0.245,0.025-0.393,0.073c-0.147,0.049-0.314,0.122-0.499,0.219l-0.72,3.146h-1.431l1.021-4.436h1.431l-0.117,0.491
		c0.294-0.193,0.561-0.344,0.803-0.452c0.241-0.109,0.508-0.164,0.798-0.164c0.399,0,0.709,0.097,0.931,0.289
		C96.444,38.325,96.555,38.603,96.555,38.97"/>
	<path clip-path="url(#SVGID_2_)" fill="#045764" d="M102.69,37.968l-0.895,3.929c-0.098,0.422-0.236,0.772-0.416,1.052
		c-0.179,0.279-0.396,0.502-0.651,0.668c-0.265,0.171-0.55,0.291-0.859,0.359c-0.308,0.069-0.655,0.103-1.04,0.103
		c-0.32,0-0.625-0.018-0.918-0.056c-0.292-0.039-0.538-0.083-0.739-0.133l0.217-1.089h0.174c0.219,0.083,0.44,0.149,0.664,0.199
		c0.224,0.048,0.423,0.074,0.597,0.074c0.25,0,0.467-0.023,0.652-0.07c0.184-0.046,0.33-0.113,0.435-0.2
		c0.113-0.092,0.204-0.206,0.27-0.34c0.067-0.135,0.122-0.299,0.163-0.495l0.019-0.082c-0.206,0.139-0.409,0.25-0.612,0.332
		c-0.203,0.081-0.433,0.122-0.687,0.122c-0.498,0-0.887-0.125-1.167-0.376c-0.28-0.249-0.421-0.628-0.421-1.134
		c0-0.872,0.247-1.588,0.739-2.148c0.493-0.559,1.092-0.84,1.796-0.84c0.253,0,0.484,0.031,0.69,0.092
		c0.207,0.062,0.374,0.138,0.501,0.231l0.099-0.198H102.69z M101.02,38.999c-0.076-0.034-0.178-0.066-0.303-0.096
		c-0.125-0.031-0.236-0.046-0.331-0.046c-0.425,0-0.767,0.159-1.025,0.478c-0.259,0.318-0.389,0.727-0.389,1.227
		c0,0.227,0.056,0.403,0.166,0.53c0.112,0.126,0.311,0.189,0.598,0.189c0.141,0,0.282-0.027,0.426-0.081
		c0.143-0.054,0.279-0.118,0.406-0.191L101.02,38.999z"/>
	<path clip-path="url(#SVGID_2_)" fill="#045764" d="M104.976,42.528c-0.379,0-0.747-0.036-1.102-0.107
		c-0.356-0.071-0.628-0.154-0.818-0.249L103.33,41h0.13c0.058,0.051,0.131,0.106,0.219,0.166c0.088,0.061,0.214,0.125,0.377,0.19
		c0.14,0.06,0.302,0.113,0.487,0.156c0.184,0.044,0.383,0.066,0.597,0.066c0.319,0,0.558-0.037,0.717-0.111
		c0.159-0.073,0.239-0.178,0.239-0.314c0-0.105-0.057-0.186-0.17-0.241c-0.113-0.056-0.347-0.124-0.704-0.207
		c-0.603-0.139-1.016-0.308-1.239-0.505c-0.223-0.198-0.334-0.444-0.334-0.74c0-0.5,0.223-0.895,0.671-1.184
		c0.448-0.288,1.054-0.433,1.819-0.433c0.332,0,0.663,0.034,0.995,0.101c0.333,0.067,0.576,0.139,0.732,0.215l-0.262,1.119h-0.122
		c-0.187-0.143-0.414-0.259-0.679-0.349c-0.264-0.089-0.538-0.135-0.817-0.135c-0.303,0-0.536,0.037-0.699,0.109
		c-0.162,0.072-0.243,0.183-0.243,0.332c0,0.116,0.069,0.205,0.209,0.267c0.14,0.062,0.361,0.126,0.661,0.192
		c0.559,0.121,0.961,0.274,1.208,0.459c0.246,0.184,0.37,0.442,0.37,0.775c0,0.495-0.227,0.885-0.68,1.171
		C106.36,42.385,105.747,42.528,104.976,42.528"/>
	<path clip-path="url(#SVGID_2_)" fill="#045764" d="M110.16,42.528c-0.379,0-0.747-0.036-1.102-0.107
		c-0.356-0.071-0.628-0.154-0.818-0.249L108.514,41h0.13c0.058,0.051,0.131,0.106,0.219,0.166c0.088,0.061,0.215,0.125,0.377,0.19
		c0.14,0.06,0.302,0.113,0.487,0.156c0.185,0.044,0.383,0.066,0.597,0.066c0.319,0,0.558-0.037,0.718-0.111
		c0.158-0.073,0.239-0.178,0.239-0.314c0-0.105-0.057-0.186-0.171-0.241c-0.113-0.056-0.347-0.124-0.704-0.207
		c-0.603-0.139-1.016-0.308-1.239-0.505c-0.223-0.198-0.334-0.444-0.334-0.74c0-0.5,0.224-0.895,0.672-1.184
		c0.447-0.288,1.054-0.433,1.818-0.433c0.332,0,0.664,0.034,0.996,0.101c0.331,0.067,0.575,0.139,0.731,0.215l-0.261,1.119h-0.122
		c-0.188-0.143-0.414-0.259-0.679-0.349c-0.266-0.089-0.539-0.135-0.818-0.135c-0.304,0-0.536,0.037-0.698,0.109
		c-0.163,0.072-0.244,0.183-0.244,0.332c0,0.116,0.069,0.205,0.209,0.267c0.14,0.062,0.36,0.126,0.662,0.192
		c0.558,0.121,0.961,0.274,1.207,0.459c0.246,0.184,0.37,0.442,0.37,0.775c0,0.495-0.227,0.885-0.679,1.171
		C111.544,42.385,110.932,42.528,110.16,42.528"/>
	<path clip-path="url(#SVGID_2_)" fill="#045764" d="M115.26,42.489c-0.491,0-0.843-0.081-1.054-0.242
		c-0.21-0.162-0.316-0.403-0.316-0.722c0-0.084,0.007-0.166,0.02-0.244c0.013-0.079,0.03-0.172,0.051-0.277l0.484-2.101h-0.586
		l0.217-0.935h0.584l0.292-1.27h1.431l-0.293,1.27h1.331l-0.215,0.935h-1.331l-0.372,1.605c-0.026,0.11-0.052,0.223-0.076,0.335
		c-0.024,0.112-0.036,0.207-0.036,0.286c0,0.159,0.044,0.27,0.133,0.331c0.087,0.062,0.223,0.094,0.408,0.094
		c0.073,0,0.17-0.015,0.29-0.041c0.12-0.027,0.215-0.058,0.286-0.092h0.119l-0.222,0.942c-0.161,0.041-0.33,0.07-0.507,0.093
		C115.721,42.477,115.508,42.489,115.26,42.489"/>
	<path clip-path="url(#SVGID_2_)" fill="#045764" d="M120.335,41.933c-0.09,0.058-0.197,0.128-0.324,0.211
		c-0.125,0.083-0.243,0.148-0.351,0.196c-0.147,0.061-0.285,0.108-0.414,0.14c-0.128,0.032-0.308,0.048-0.536,0.048
		c-0.369,0-0.668-0.103-0.901-0.311c-0.232-0.207-0.349-0.476-0.349-0.808c0-0.351,0.083-0.648,0.248-0.891
		c0.166-0.244,0.41-0.439,0.736-0.584c0.305-0.137,0.667-0.236,1.089-0.296c0.421-0.06,0.877-0.105,1.368-0.135
		c0.003-0.015,0.008-0.041,0.017-0.078c0.01-0.035,0.014-0.076,0.014-0.12c0-0.186-0.087-0.317-0.26-0.391
		c-0.174-0.075-0.432-0.112-0.776-0.112c-0.234,0-0.491,0.039-0.773,0.119c-0.283,0.081-0.495,0.147-0.636,0.2h-0.131l0.21-1.056
		c0.165-0.042,0.421-0.089,0.768-0.142c0.347-0.054,0.693-0.08,1.038-0.08c0.693,0,1.203,0.091,1.527,0.272
		c0.325,0.182,0.488,0.463,0.488,0.845c0,0.054-0.006,0.122-0.014,0.205c-0.01,0.085-0.023,0.158-0.038,0.222l-0.695,3.017h-1.415
		L120.335,41.933z M120.712,40.314c-0.253,0.021-0.491,0.046-0.712,0.075c-0.221,0.029-0.41,0.071-0.565,0.126
		c-0.161,0.058-0.284,0.139-0.368,0.245c-0.084,0.105-0.126,0.244-0.126,0.418c0,0.153,0.056,0.26,0.167,0.322
		c0.112,0.061,0.275,0.092,0.489,0.092c0.139,0,0.289-0.031,0.448-0.096c0.16-0.065,0.309-0.147,0.449-0.247L120.712,40.314z"/>
	<path clip-path="url(#SVGID_2_)" fill="#045764" d="M127.069,39.324h-0.126c-0.064-0.021-0.154-0.036-0.27-0.047
		c-0.116-0.01-0.23-0.015-0.344-0.015c-0.187,0-0.368,0.013-0.541,0.041c-0.175,0.028-0.354,0.072-0.538,0.132l-0.689,2.968h-1.432
		l1.03-4.435h1.43l-0.151,0.651c0.27-0.197,0.538-0.358,0.805-0.482c0.268-0.123,0.538-0.185,0.81-0.185
		c0.051,0,0.107,0.001,0.168,0.004c0.062,0.003,0.117,0.007,0.164,0.012L127.069,39.324z"/>
	<polygon clip-path="url(#SVGID_2_)" fill="#045764" points="132.155,42.404 130.656,42.404 129.784,40.447 129.159,41.001 
		128.832,42.404 127.4,42.404 128.819,36.254 130.25,36.254 129.403,39.926 131.389,37.968 133.028,37.968 130.973,39.9 	"/>
	<polygon clip-path="url(#SVGID_2_)" fill="#045764" points="134.653,42.404 133.169,42.404 133.524,40.852 135.009,40.852 	"/>
	<path clip-path="url(#SVGID_2_)" fill="#045764" d="M141.316,42.512c-0.502,0-0.95-0.043-1.343-0.13
		c-0.393-0.087-0.733-0.195-1.019-0.323l0.302-1.41h0.166c0.271,0.248,0.588,0.44,0.953,0.576c0.364,0.136,0.757,0.204,1.177,0.204
		c0.431,0,0.747-0.059,0.949-0.176c0.201-0.119,0.303-0.287,0.303-0.507c0-0.081-0.016-0.151-0.049-0.211
		c-0.033-0.059-0.097-0.117-0.191-0.176c-0.095-0.057-0.224-0.115-0.388-0.171c-0.164-0.057-0.376-0.122-0.636-0.197
		c-0.286-0.078-0.542-0.163-0.769-0.256c-0.228-0.091-0.421-0.201-0.581-0.328c-0.16-0.128-0.282-0.278-0.365-0.446
		c-0.082-0.169-0.123-0.37-0.123-0.604c0-0.591,0.259-1.061,0.779-1.413c0.52-0.351,1.231-0.527,2.133-0.527
		c0.434,0,0.843,0.035,1.229,0.107c0.385,0.071,0.711,0.167,0.98,0.289l-0.288,1.358h-0.161c-0.205-0.191-0.475-0.35-0.81-0.479
		c-0.335-0.127-0.701-0.192-1.098-0.192c-0.388,0-0.689,0.056-0.902,0.17c-0.212,0.113-0.319,0.269-0.319,0.469
		c0,0.092,0.016,0.169,0.047,0.229c0.032,0.06,0.097,0.121,0.193,0.178c0.084,0.053,0.217,0.11,0.397,0.172
		c0.182,0.061,0.395,0.126,0.639,0.192c0.656,0.176,1.125,0.383,1.405,0.62c0.281,0.237,0.421,0.558,0.421,0.964
		c0,0.339-0.076,0.639-0.229,0.896c-0.152,0.259-0.362,0.468-0.629,0.628c-0.283,0.172-0.602,0.297-0.959,0.376
		C142.172,42.473,141.767,42.512,141.316,42.512"/>
	<path clip-path="url(#SVGID_2_)" fill="#045764" d="M147.591,37.968l-1.029,4.436h-1.432l1.028-4.436H147.591z M148.029,36.26
		l-0.249,1.076h-1.513l0.25-1.076H148.029z"/>
	<path clip-path="url(#SVGID_2_)" fill="#045764" d="M150.393,42.528c-0.303,0-0.586-0.037-0.85-0.113
		c-0.265-0.074-0.496-0.191-0.693-0.35c-0.193-0.156-0.342-0.351-0.45-0.585c-0.108-0.235-0.162-0.507-0.162-0.816
		c0-0.398,0.076-0.767,0.227-1.11c0.151-0.341,0.363-0.639,0.637-0.896c0.269-0.25,0.597-0.449,0.984-0.594
		c0.386-0.147,0.805-0.221,1.254-0.221c0.271,0,0.541,0.031,0.808,0.091c0.267,0.061,0.515,0.149,0.743,0.265l-0.299,1.212h-0.202
		c-0.155-0.188-0.331-0.327-0.527-0.417c-0.195-0.091-0.415-0.137-0.66-0.137c-0.447,0-0.807,0.16-1.078,0.478
		c-0.271,0.319-0.406,0.716-0.406,1.192c0,0.331,0.083,0.578,0.251,0.742c0.167,0.164,0.426,0.246,0.778,0.246
		c0.275,0,0.523-0.057,0.748-0.17c0.225-0.112,0.418-0.237,0.578-0.376h0.202l-0.301,1.215c-0.283,0.124-0.533,0.213-0.747,0.265
		C151.013,42.502,150.735,42.528,150.393,42.528"/>
	<path clip-path="url(#SVGID_2_)" fill="#045764" d="M158.391,38.97c0,0.063-0.006,0.145-0.016,0.245c-0.01,0.1-0.027,0.2-0.051,0.3
		l-0.667,2.889h-1.436l0.506-2.202c0.037-0.168,0.066-0.31,0.086-0.426c0.023-0.116,0.032-0.221,0.032-0.311
		c0-0.177-0.044-0.305-0.132-0.382c-0.088-0.078-0.249-0.117-0.479-0.117c-0.114,0-0.244,0.025-0.392,0.073
		c-0.147,0.049-0.312,0.122-0.493,0.219l-0.726,3.146h-1.431l1.418-6.15h1.432l-0.508,2.202c0.289-0.193,0.556-0.342,0.798-0.451
		c0.242-0.107,0.508-0.162,0.798-0.162c0.404,0,0.714,0.099,0.933,0.294C158.282,38.334,158.391,38.611,158.391,38.97"/>
	<path clip-path="url(#SVGID_2_)" fill="#045764" d="M161.673,42.527c-0.756,0-1.34-0.167-1.752-0.501
		c-0.41-0.336-0.615-0.799-0.615-1.39c0-0.403,0.067-0.774,0.2-1.112c0.135-0.338,0.328-0.634,0.582-0.89
		c0.242-0.248,0.545-0.445,0.908-0.589c0.364-0.146,0.763-0.218,1.197-0.218c0.661,0,1.161,0.134,1.496,0.403
		c0.335,0.267,0.504,0.663,0.504,1.185c0,0.181-0.019,0.356-0.054,0.528c-0.036,0.172-0.082,0.342-0.14,0.511h-3.298V40.5v0.045
		c0,0.309,0.107,0.549,0.324,0.724c0.216,0.174,0.547,0.26,0.994,0.26c0.311,0,0.606-0.052,0.884-0.159
		c0.278-0.106,0.52-0.224,0.726-0.355h0.158l-0.264,1.144c-0.277,0.122-0.568,0.213-0.874,0.276
		C162.343,42.496,162.018,42.527,161.673,42.527 M162.758,39.62c0.008-0.048,0.014-0.092,0.018-0.132
		c0.003-0.039,0.006-0.081,0.006-0.123c0-0.21-0.065-0.371-0.195-0.481c-0.128-0.112-0.315-0.169-0.557-0.169
		c-0.293,0-0.538,0.08-0.738,0.24c-0.199,0.159-0.35,0.381-0.453,0.665H162.758z"/>
	<path clip-path="url(#SVGID_2_)" fill="#045764" d="M168.762,39.324h-0.126c-0.063-0.021-0.154-0.036-0.27-0.047
		c-0.116-0.01-0.23-0.015-0.343-0.015c-0.188,0-0.369,0.013-0.542,0.041c-0.175,0.028-0.354,0.072-0.538,0.132l-0.689,2.968h-1.432
		l1.03-4.435h1.431l-0.151,0.651c0.269-0.197,0.537-0.358,0.805-0.482c0.268-0.123,0.537-0.185,0.809-0.185
		c0.051,0,0.107,0.001,0.168,0.004c0.062,0.003,0.117,0.007,0.165,0.012L168.762,39.324z"/>
	<polygon clip-path="url(#SVGID_2_)" fill="#045764" points="170.338,42.404 168.854,42.404 169.209,40.852 170.694,40.852 	"/>
	<polygon clip-path="url(#SVGID_2_)" fill="#717070" points="181.515,28.247 162.066,28.247 168.23,1.467 175.208,1.483 
		170.25,23.029 182.727,23.029 	"/>
	<polygon clip-path="url(#SVGID_2_)" fill="#045764" points="95.571,-64.75 67.313,-64.75 64.683,-52.818 76.795,-52.818 
		70.806,-25.113 86.206,-25.113 	"/>
	<polygon clip-path="url(#SVGID_2_)" fill="#717070" points="58.221,1.625 57.053,6.698 44.571,6.698 43.475,11.449 55.054,11.449 
		53.87,16.524 42.304,16.524 40.746,23.278 53.212,23.278 52.062,28.352 32.689,28.352 38.854,1.625 	"/>
</g>
</svg>
